<svg width="33" height="14" viewBox="0 0 33 14" fill="none" xmlns="http://www.w3.org/2000/svg">
<path d="M3.70623 12.8769H29.293C30.246 12.8769 31.1101 12.3905 31.6044 11.5757C32.0986 10.7606 32.1307 9.76955 31.6903 8.92432L28.2846 2.3893C27.8384 1.53229 26.9606 1 25.9943 1H7.0049C6.03865 1 5.16107 1.53229 4.71468 2.3893L1.30891 8.92432C0.868513 9.76955 0.900643 10.7606 1.3948 11.5757C1.88917 12.3905 2.75326 12.8769 3.70623 12.8769ZM1.69789 9.12695L5.10367 2.59193C5.47423 1.88057 6.20273 1.43868 7.0049 1.43868H25.9943C26.7965 1.43868 27.525 1.88057 27.8956 2.59193L31.3014 9.12695C31.6702 9.83509 31.6434 10.6655 31.2294 11.3482C30.8153 12.0306 30.0913 12.4383 29.293 12.4383H3.70623C2.90791 12.4383 2.18391 12.0306 1.76986 11.3482C1.35582 10.6655 1.32904 9.83509 1.69789 9.12695Z" fill="#6F7880" stroke="#6F7880"/>
<path d="M7.28691 10.2287H10.3577C10.4788 10.2287 10.577 10.1304 10.577 10.0093V7.39582C10.577 7.26441 10.6835 7.15788 10.815 7.15788H12.9712C13.1026 7.15788 13.2091 7.26441 13.2091 7.39582V10.0093C13.2091 10.1304 13.3073 10.2287 13.4284 10.2287H16.4992C16.6203 10.2287 16.7185 10.1304 16.7185 10.0093V7.39582C16.7185 7.26441 16.8251 7.15788 16.9565 7.15788H19.1127C19.2441 7.15788 19.3506 7.26441 19.3506 7.39582V10.0093C19.3506 10.1304 19.4488 10.2287 19.57 10.2287H22.6407C22.7619 10.2287 22.8601 10.1304 22.8601 10.0093V7.39582C22.8601 7.26441 22.9666 7.15788 23.098 7.15788H25.7115C25.8326 7.15788 25.9308 7.05968 25.9308 6.93854V3.86778C25.9308 3.74664 25.8326 3.64844 25.7115 3.64844H22.6407C22.5196 3.64844 22.4214 3.74664 22.4214 3.86778V6.48126C22.4214 6.61267 22.3149 6.7192 22.1835 6.7192H20.0273C19.8958 6.7192 19.7893 6.61267 19.7893 6.48126V3.86778C19.7893 3.74664 19.6911 3.64844 19.57 3.64844H16.4992C16.3781 3.64844 16.2799 3.74664 16.2799 3.86778V6.48126C16.2799 6.61267 16.1733 6.7192 16.0419 6.7192H13.8857C13.7543 6.7192 13.6478 6.61267 13.6478 6.48126V3.86778C13.6478 3.74664 13.5496 3.64844 13.4284 3.64844H10.3577C10.2365 3.64844 10.1383 3.74664 10.1383 3.86778V6.48126C10.1383 6.61267 10.0318 6.7192 9.90039 6.7192H7.28691C7.16577 6.7192 7.06757 6.81741 7.06757 6.93854V10.0093C7.06757 10.1304 7.16577 10.2287 7.28691 10.2287Z" fill="#6F7880"/>
</svg>
