<svg width="26" height="26" viewBox="0 0 26 26" fill="none" xmlns="http://www.w3.org/2000/svg">
<path d="M5.41669 14.0835H8.66669M2.16669 9.75016L4.33335 10.8335L5.70988 6.70391C5.99401 5.85152 6.13608 5.42532 6.39958 5.11023C6.63227 4.83197 6.9311 4.61659 7.26865 4.48384C7.65091 4.3335 8.10016 4.3335 8.99865 4.3335H17.0014C17.8999 4.3335 18.3491 4.3335 18.7314 4.48384C19.0689 4.61659 19.3678 4.83197 19.6005 5.11023C19.864 5.42532 20.006 5.85152 20.2902 6.70391L21.6667 10.8335L23.8334 9.75016M17.3334 14.0835H20.5834M7.36669 10.8335H18.6334C20.4535 10.8335 21.3636 10.8335 22.0588 11.1877C22.6704 11.4993 23.1675 11.9965 23.4791 12.608C23.8334 13.3032 23.8334 14.2133 23.8334 16.0335V18.9585C23.8334 19.4619 23.8334 19.7136 23.7917 19.9229C23.6208 20.7824 22.9489 21.4542 22.0894 21.6252C21.8801 21.6668 21.6284 21.6668 21.125 21.6668H20.5834C19.3867 21.6668 18.4167 20.6968 18.4167 19.5002C18.4167 19.201 18.1742 18.9585 17.875 18.9585H8.12502C7.82587 18.9585 7.58335 19.201 7.58335 19.5002C7.58335 20.6968 6.6133 21.6668 5.41669 21.6668H4.87502C4.37164 21.6668 4.11996 21.6668 3.91066 21.6252C3.05116 21.4542 2.37928 20.7824 2.20832 19.9229C2.16669 19.7136 2.16669 19.4619 2.16669 18.9585V16.0335C2.16669 14.2133 2.16669 13.3032 2.52092 12.608C2.8325 11.9965 3.32969 11.4993 3.94122 11.1877C4.63643 10.8335 5.54652 10.8335 7.36669 10.8335Z" stroke="white" stroke-width="2" stroke-linecap="round" stroke-linejoin="round"/>
</svg>
